{"title":"Green Street 3 Never Back Down (2013) 720p Blu-Ray x264 [Dual-Au","uid":11281106,"size":994863895,"categoryP":"video","categoryS":"hd___movies","magnet":"?xt=urn:btih:26ea3c5e3e8a8e81207f5969877f77fb643a4522&amp;dn=Green+Street+3+Never+Back+Down+%282013%29+720p+Blu-Ray+x264+%5BDual-Au&amp;tr=udp%3A%2F%2Ftracker.openbittorrent.com%3A80&amp;tr=udp%3A%2F%2Fopen.demonii.com%3A1337&amp;tr=udp%3A%2F%2Ftracker.coppersurfer.tk%3A6969&amp;tr=udp%3A%2F%2Fexodus.desync.com%3A6969","seeders":8,"leechers":11,"uploader":"inovai","files":3,"time":1414215474,"description":"Green Street 3 Never Back Down (2013) 720p Blu-Ray x264 [Dual-Audio][English 5.1 + Hindi] - Mafiaking - Team TellyTNT ExClusive\n\nFirst On Net.\n\nHindi Line Audio.\n\nCover:\n &lt;a href=&quot;\nhttp://forum.primetimeshow.in/viewtopic.php?f=7&amp;t=790&quot; rel=&quot;nofollow&quot; target=&quot;_NEW&quot;&gt;\nhttp://forum.primetimeshow.in/viewtopic.php?f=7&amp;t=790&lt;/a&gt;\n\n\nRatings: 5.5/10\n\nGENRE: Action | Drama\n\nScreenshots:\n &lt;a href=&quot;\nhttp://m.primetimeshow.in/share-4341_544B1A9E.html&quot; rel=&quot;nofollow&quot; target=&quot;_NEW&quot;&gt;\nhttp://m.primetimeshow.in/share-4341_544B1A9E.html&lt;/a&gt;\n &lt;a href=&quot;\nhttp://m.primetimeshow.in/share-89C5_544B1A9E.html&quot; rel=&quot;nofollow&quot; target=&quot;_NEW&quot;&gt;\nhttp://m.primetimeshow.in/share-89C5_544B1A9E.html&lt;/a&gt;\n &lt;a href=&quot;\nhttp://m.primetimeshow.in/share-F0E2_544B1A9E.html&quot; rel=&quot;nofollow&quot; target=&quot;_NEW&quot;&gt;\nhttp://m.primetimeshow.in/share-F0E2_544B1A9E.html&lt;/a&gt;\n &lt;a href=&quot;\nhttp://m.primetimeshow.in/share-C364_544B1A9E.html&quot; rel=&quot;nofollow&quot; target=&quot;_NEW&quot;&gt;\nhttp://m.primetimeshow.in/share-C364_544B1A9E.html&lt;/a&gt;\n &lt;a href=&quot;\nhttp://m.primetimeshow.in/share-E0D5_544B1A9E.html&quot; rel=&quot;nofollow&quot; target=&quot;_NEW&quot;&gt;\nhttp://m.primetimeshow.in/share-E0D5_544B1A9E.html&lt;/a&gt;\n\nGeneral\nUnique ID : 172287001030896672241940959086785742287 (0x819D44F974ED3847BB483F8DBD2E45CF)\nComplete name : Green Street 3 Never Back Down (2013) 720p Blu-Ray x264 [Dual-Audio][English 5.1+Hindi] - Mafiaking - Team TellyTNT ExClusive.mkv\nFormat : Matroska\nFormat version : Version 4 / Version 2\nFile size : 943 MiB\nDuration : 1h 33mn\nOverall bit rate : 1 414 Kbps\nMovie name : Green Street 3 Never Back Down (2013) 720p Blu-Ray x264 [Dual-Audio][English 5.1+Hindi] - Mafiaking - Team TellyTNT ExClusive\nEncoded date : UTC 2014-10-24 14:51:41\nWriting application : mkvmerge v7.0.0 ('Where We Going') 64bit built on Jun 9 2014 15:16:27\nWriting library : libebml v1.3.0 + libmatroska v1.4.1\n\n\nVideo\nID : 1\nFormat : AVC\nFormat/Info : Advanced Video Codec\nFormat profile : &lt;a class=&quot;__cf_email__&quot; href=&quot;/cdn-cgi/l/email-protection&quot; data-cfemail=&quot;7038191718303c445e41&quot;&gt;[email&amp;#160;protected]&lt;/a&gt;&lt;script cf-hash='f9e31' type=&quot;text/javascript&quot;&gt;\n/* &lt;![CDATA[ */!function(){try{var t=&quot;currentScript&quot;in document?document.currentScript:function(){for(var t=document.getElementsByTagName(&quot;script&quot;),e=t.length;e--;)if(t[e].getAttribute(&quot;cf-hash&quot;))return t[e]}();if(t&amp;&amp;t.previousSibling){var e,r,n,i,c=t.previousSibling,a=c.getAttribute(&quot;data-cfemail&quot;);if(a){for(e=&quot;&quot;,r=parseInt(a.substr(0,2),16),n=2;a.length-n;n+=2)i=parseInt(a.substr(n,2),16)^r,e+=String.fromCharCode(i);e=document.createTextNode(e),c.parentNode.replaceChild(e,c)}}}catch(u){}}();/* ]]&gt; */&lt;/script&gt;\nFormat settings, CABAC : Yes\nFormat settings, ReFrames : 4 frames\nCodec ID : V_MPEG4/ISO/AVC\nDuration : 1h 33mn\nBit rate : 1 001 Kbps\nWidth : 1 280 pixels\nHeight : 544 pixels\nDisplay aspect ratio : 2.35:1\nFrame rate mode : Constant\nFrame rate : 24.000 fps\nColor space : YUV\nChroma subsampling : 4:2:0\nBit depth : 8 bits\nScan type : Progressive\nBits/(Pixel*Frame) : 0.060\nStream size : 647 MiB (69%)\nTitle : Mafiaking\nLanguage : English\nDefault : Yes\nForced : No\n\n\nAudio #1\nID : 2\nFormat : AC-3\nFormat/Info : Audio Coding 3\nMode extension : CM (complete main)\nFormat settings, Endianness : Big\nCodec ID : A_AC3\nDuration : 1h 33mn\nBit rate mode : Constant\nBit rate : 192 Kbps\nChannel(s) : 2 channels\nChannel positions : Front: L R\nSampling rate : 44.1 KHz\nBit depth : 16 bits\nCompression mode : Lossy\nStream size : 128 MiB (14%)\nTitle : Mafiaking\nLanguage : Hindi\nDefault : Yes\nForced : No\n\n\nAudio #2\nID : 3\nFormat : AC-3\nFormat/Info : Audio Coding 3\nMode extension : CM (complete main)\nFormat settings, Endianness : Big\nCodec ID : A_AC3\nDuration : 1h 33mn\nBit rate mode : Constant\nBit rate : 224 Kbps\nChannel(s) : 6 channels\nChannel positions : Front: L C R, Side: L R, LFE\nSampling rate : 48.0 KHz\nBit depth : 16 bits\nCompression mode : Lossy\nStream size : 149 MiB (16%)\nTitle : Mafiaking\nLanguage : English\nDefault : No\nForced : No\n\nSAMPLE WITH IN TORRENT\n\n\nTHanks to Mafiaking - Team TellyTNT!!\n\nSeed n Enjoy!!","torrent":{"xt":"urn:btih:26ea3c5e3e8a8e81207f5969877f77fb643a4522","amp;dn":"Green+Street+3+Never+Back+Down+%282013%29+720p+Blu-Ray+x264+%5BDual-Au","amp;tr":["udp%3A%2F%2Ftracker.openbittorrent.com%3A80","udp%3A%2F%2Fopen.demonii.com%3A1337","udp%3A%2F%2Ftracker.coppersurfer.tk%3A6969","udp%3A%2F%2Fexodus.desync.com%3A6969"],"infoHash":"26ea3c5e3e8a8e81207f5969877f77fb643a4522","infoHashBuffer":{"type":"Buffer","data":[38,234,60,94,62,138,142,129,32,127,89,105,135,127,119,251,100,58,69,34]},"announce":[],"urlList":[]}}